<svg width="1208" height="302" viewBox="0 0 1208 302" fill="none" xmlns="http://www.w3.org/2000/svg">
<path d="M1173.21 3.35547H35.1449C17.5881 3.35547 3.35547 16.7547 3.35547 33.2834V269.714C3.35547 286.243 17.5881 299.642 35.1449 299.642H1173.21C1190.76 299.642 1205 286.243 1205 269.714V33.2834C1205 16.7547 1190.76 3.35547 1173.21 3.35547Z" fill="#050505"/>
<path d="M152.767 108.104C152.767 104.798 155.613 102.118 159.124 102.118H321.251C324.764 102.118 327.609 104.798 327.609 108.104V200.88C327.609 204.187 324.764 206.866 321.251 206.866H159.124C155.613 206.866 152.767 204.187 152.767 200.88V108.104Z" fill="#446FFE"/>
<path d="M232.241 200.88H248.196V207.79C248.196 211.938 244.624 215.299 240.219 215.299C235.813 215.299 232.241 211.938 232.241 207.79V200.88Z" fill="#446FFE"/>
<path d="M168.661 96.1321C168.661 92.8262 171.508 90.1465 175.019 90.1465H304.503C308.014 90.1465 310.861 92.8262 310.861 96.1321V188.909C310.861 192.216 308.014 194.894 304.503 194.894H175.019C171.508 194.894 168.661 192.216 168.661 188.909V96.1321Z" fill="white"/>
<g filter="url(#filter0_d_63_468)">
<path d="M239.762 90.1465H305.357C308.868 90.1465 311.715 92.8262 311.715 96.1321V187.861C311.715 191.168 308.868 193.847 305.357 193.847H239.762V90.1465Z" fill="white"/>
</g>
<path d="M447.837 104.737V206.866H425.486L381.899 138.405V206.866H359.548V104.737H381.899L425.559 173.266V104.737H447.837ZM491.687 104.737V206.866H469.409V104.737H491.687Z" fill="white"/>
<path d="M592.282 104.737H611.206L639.073 179.721L666.936 104.737H685.861L646.67 206.866H631.472L592.282 104.737ZM582.074 104.737H600.925L604.352 177.827V206.866H582.074V104.737ZM677.22 104.737H696.144V206.866H673.79V177.827L677.22 104.737Z" fill="white"/>
<path d="M846.492 206.866C843.755 206.866 841.422 205.938 839.492 204.085C837.562 202.23 836.596 200.003 836.596 197.399C836.596 194.796 837.572 192.575 839.521 190.741C841.469 188.906 843.815 187.987 846.552 187.987C849.289 187.987 851.623 188.915 853.553 190.767C855.482 192.623 856.448 194.85 856.448 197.453C856.448 200.057 855.473 202.278 853.524 204.112C851.575 205.947 849.232 206.866 846.492 206.866ZM901.637 206.866C898.9 206.866 896.567 205.938 894.637 204.085C892.708 202.23 891.741 200.003 891.741 197.399C891.741 194.796 892.717 192.575 894.666 190.741C896.614 188.906 898.957 187.987 901.698 187.987C904.435 187.987 906.768 188.915 908.698 190.767C910.627 192.623 911.594 194.85 911.594 197.453C911.594 200.057 910.618 202.278 908.669 204.112C906.72 205.947 904.374 206.866 901.637 206.866ZM839.355 120.341L854.519 150.231H894.224L911.457 120.341H839.355ZM835.219 112.475H916.429C918.54 112.475 920.145 113.392 921.245 115.228C922.348 117.063 922.348 118.899 921.245 120.734L902.632 152.591C901.621 154.251 900.308 155.584 898.697 156.589C897.082 157.594 895.314 158.097 893.394 158.097H851.623L843.904 171.73H911.594V179.598H845.144C841.285 179.598 838.503 178.374 836.803 175.926C835.102 173.478 835.127 170.725 836.873 167.666L845.694 152.198L824.742 109.984H813.987V102.118H830.117L835.219 112.475Z" fill="white"/>
<path d="M986.62 104.737V206.866H964.342V104.737H986.62ZM1020 104.737V121.22H931.484V104.737H1020Z" fill="white"/>
<path d="M762.876 122.202L733.373 206.866H709.604L749.913 104.737H765.038L762.876 122.202ZM787.389 206.866L757.809 122.202L755.425 104.737H770.7L811.231 206.866H787.389ZM786.048 168.848V185.332H728.754V168.848H786.048Z" fill="white"/>
<defs>
<filter id="filter0_d_63_468" x="159.762" y="15.1465" width="221.953" height="253.7" filterUnits="userSpaceOnUse" color-interpolation-filters="sRGB">
<feFlood flood-opacity="0" result="BackgroundImageFix"/>
<feColorMatrix in="SourceAlpha" type="matrix" values="0 0 0 0 0 0 0 0 0 0 0 0 0 0 0 0 0 0 127 0" result="hardAlpha"/>
<feOffset dx="-5"/>
<feGaussianBlur stdDeviation="37.5"/>
<feComposite in2="hardAlpha" operator="out"/>
<feColorMatrix type="matrix" values="0 0 0 0 0 0 0 0 0 0 0 0 0 0 0 0 0 0 0.25 0"/>
<feBlend mode="normal" in2="BackgroundImageFix" result="effect1_dropShadow_63_468"/>
<feBlend mode="normal" in="SourceGraphic" in2="effect1_dropShadow_63_468" result="shape"/>
</filter>
</defs>
</svg>
