<svg width="291" height="133" viewBox="0 0 291 133" fill="none" xmlns="http://www.w3.org/2000/svg">
<g clip-path="url(#clip0_5_307)">
<path d="M282.437 33.0703H9.16029C4.94446 33.0703 1.52686 36.289 1.52686 40.2595V97.0541C1.52686 101.025 4.94446 104.243 9.16029 104.243H282.437C286.653 104.243 290.071 101.025 290.071 97.0541V40.2595C290.071 36.289 286.653 33.0703 282.437 33.0703Z" fill="#050505"/>
<path d="M37.4038 58.2324C37.4038 57.4383 38.0873 56.7946 38.9305 56.7946H77.861C78.7045 56.7946 79.3877 57.4383 79.3877 58.2324V80.5189C79.3877 81.3133 78.7045 81.9567 77.861 81.9567H38.9305C38.0873 81.9567 37.4038 81.3133 37.4038 80.5189V58.2324Z" fill="#446FFE"/>
<path d="M56.4873 80.5189H60.3184V82.1789C60.3184 83.1753 59.4608 83.9827 58.4029 83.9827C57.3449 83.9827 56.4873 83.1753 56.4873 82.1789V80.5189Z" fill="#446FFE"/>
<path d="M41.2207 55.3568C41.2207 54.5627 41.9042 53.9189 42.7474 53.9189H73.8396C74.6828 53.9189 75.3663 54.5627 75.3663 55.3568V77.6433C75.3663 78.4377 74.6828 79.0811 73.8396 79.0811H42.7474C41.9042 79.0811 41.2207 78.4377 41.2207 77.6433V55.3568Z" fill="white"/>
<g filter="url(#filter0_d_5_307)">
<path d="M58.2935 53.9189H74.0445C74.8876 53.9189 75.5712 54.5627 75.5712 55.3568V77.3916C75.5712 78.1861 74.8876 78.8295 74.0445 78.8295H58.2935V53.9189Z" fill="white"/>
</g>
<path d="M108.257 57.4237V81.9568H102.89L92.4242 65.5115V81.9568H87.0571V57.4237H92.4242L102.908 73.8855V57.4237H108.257ZM118.787 57.4237V81.9568H113.438V57.4237H118.787Z" fill="white"/>
<path d="M142.942 57.4237H147.486L154.178 75.4362L160.869 57.4237H165.413L156.002 81.9568H152.353L142.942 57.4237ZM140.491 57.4237H145.018L145.841 74.9811V81.9568H140.491V57.4237ZM163.338 57.4237H167.882V81.9568H162.514V74.9811L163.338 57.4237Z" fill="white"/>
<path d="M203.984 81.9567C203.327 81.9567 202.767 81.7339 202.304 81.2888C201.84 80.8431 201.608 80.3082 201.608 79.6828C201.608 79.0573 201.842 78.5239 202.31 78.0832C202.778 77.6425 203.342 77.4218 203.999 77.4218C204.656 77.4218 205.216 77.6446 205.68 78.0897C206.143 78.5354 206.375 79.0703 206.375 79.6957C206.375 80.3212 206.141 80.8546 205.673 81.2953C205.205 81.736 204.642 81.9567 203.984 81.9567ZM217.226 81.9567C216.569 81.9567 216.009 81.7339 215.545 81.2888C215.082 80.8431 214.85 80.3082 214.85 79.6828C214.85 79.0573 215.084 78.5239 215.552 78.0832C216.02 77.6425 216.583 77.4218 217.241 77.4218C217.898 77.4218 218.458 77.6446 218.921 78.0897C219.385 78.5354 219.617 79.0703 219.617 79.6957C219.617 80.3212 219.383 80.8546 218.915 81.2953C218.447 81.736 217.883 81.9567 217.226 81.9567ZM202.271 61.172L205.912 68.3521H215.446L219.584 61.172H202.271ZM201.278 59.2824H220.778C221.285 59.2824 221.67 59.5029 221.934 59.9438C222.199 60.3846 222.199 60.8255 221.934 61.2664L217.465 68.919C217.222 69.3179 216.907 69.638 216.52 69.8795C216.132 70.1209 215.708 70.2416 215.247 70.2416H205.216L203.363 73.5166H219.617V75.4066H203.661C202.734 75.4066 202.066 75.1126 201.658 74.5245C201.249 73.9365 201.255 73.2751 201.675 72.5403L203.793 68.8245L198.762 58.6841H196.179V56.7946H200.052L201.278 59.2824Z" fill="white"/>
<path d="M237.632 57.4237V81.9568H232.283V57.4237H237.632ZM245.648 57.4237V61.3834H224.393V57.4237H245.648Z" fill="white"/>
<path d="M183.906 61.6192L176.822 81.9568H171.114L180.793 57.4237H184.425L183.906 61.6192ZM189.792 81.9568L182.69 61.6192L182.117 57.4237H185.785L195.518 81.9568H189.792ZM189.47 72.8244V76.7842H175.713V72.8244H189.47Z" fill="white"/>
</g>
<defs>
<filter id="filter0_d_5_307" x="-17.7065" y="-21.0811" width="167.278" height="174.911" filterUnits="userSpaceOnUse" color-interpolation-filters="sRGB">
<feFlood flood-opacity="0" result="BackgroundImageFix"/>
<feColorMatrix in="SourceAlpha" type="matrix" values="0 0 0 0 0 0 0 0 0 0 0 0 0 0 0 0 0 0 127 0" result="hardAlpha"/>
<feOffset dx="-1"/>
<feGaussianBlur stdDeviation="37.5"/>
<feComposite in2="hardAlpha" operator="out"/>
<feColorMatrix type="matrix" values="0 0 0 0 0 0 0 0 0 0 0 0 0 0 0 0 0 0 0.75 0"/>
<feBlend mode="normal" in2="BackgroundImageFix" result="effect1_dropShadow_5_307"/>
<feBlend mode="normal" in="SourceGraphic" in2="effect1_dropShadow_5_307" result="shape"/>
</filter>
<clipPath id="clip0_5_307">
<rect width="290.07" height="133" fill="white"/>
</clipPath>
</defs>
</svg>
